<?xml version="1.0" encoding="UTF-8"?>
<svg width="76px" height="70px" viewBox="0 0 76 70" version="1.1" xmlns="http://www.w3.org/2000/svg" xmlns:xlink="http://www.w3.org/1999/xlink">
    <title>Group 50</title>
    <defs>
        <polygon id="path-1" points="0 0 70.000109 0 70.000109 70 0 70"></polygon>
    </defs>
    <g id="Page-1" stroke="none" stroke-width="1" fill="none" fill-rule="evenodd">
        <g id="Option-5_V2" transform="translate(-1015, -835)">
            <g id="Group-50" transform="translate(1015, 835)">
                <g id="Group-14" transform="translate(4.0785, 0)">
                    <g id="Group-3">
                        <mask id="mask-2" fill="white">
                            <use xlink:href="#path-1"></use>
                        </mask>
                        <g id="Clip-2"></g>
                        <path d="M70.000109,34.9999455 C70.000109,54.3299448 54.3300538,70 35.0000545,70 C15.6700552,70 0,54.3299448 0,34.9999455 C0,15.6699462 15.6700552,-0.000109024249 35.0000545,-0.000109024249 C54.3300538,-0.000109024249 70.000109,15.6699462 70.000109,34.9999455" id="Fill-1" fill="#FFF0B2" mask="url(#mask-2)"></path>
                    </g>
                    <path d="M38.0154472,24.9183642 L32.0965207,24.9183642 C31.6342579,24.9183642 31.2592145,24.5433208 31.2592145,24.081058 C31.2592145,23.6177049 31.6342579,23.2426615 32.0965207,23.2426615 L38.0154472,23.2426615 C38.47771,23.2426615 38.8538436,23.6177049 38.8538436,24.081058 C38.8538436,24.5433208 38.47771,24.9183642 38.0154472,24.9183642" id="Fill-4" fill="#337894"></path>
                    <path d="M63.3042758,58.103492 C63.3042758,59.3725343 61.2001078,60.400633 59.9310655,60.400633 L9.10505109,60.400633 C7.8349186,60.400633 6.00004049,59.3725343 6.00004049,58.103492 L6.00004049,23.4185176 C6.00004049,22.1494754 7.02813916,21.1213767 8.29718141,21.1213767 L61.0071349,21.1213767 C62.2761771,21.1213767 63.3042758,22.1494754 63.3042758,23.4185176 L63.3042758,58.103492 Z" id="Fill-6" fill="#FFFFFF"></path>
                    <path d="M59.9313926,61.2384843 L9.10428792,61.2384843 C7.53433874,61.2384843 5.1619711,59.9879762 5.1619711,58.1040372 L5.1619711,23.4179725 C5.1619711,21.6899382 6.5683839,20.2835253 8.29750848,20.2835253 L61.0074619,20.2835253 C62.7354963,20.2835253 64.1419091,21.6899382 64.1419091,23.4179725 L64.1419091,58.1040372 C64.1419091,60.0479395 61.4163029,61.2384843 59.9313926,61.2384843 L59.9313926,61.2384843 Z M8.29750848,21.959228 C7.49181929,21.959228 6.8376738,22.6133735 6.8376738,23.4179725 L6.8376738,58.1040372 C6.8376738,58.7309266 8.12961114,59.5627816 9.10428792,59.5627816 L59.9313926,59.5627816 C60.9507693,59.5627816 62.4662064,58.6905876 62.4662064,58.1040372 L62.4662064,23.4179725 C62.4662064,22.6133735 61.8120609,21.959228 61.0074619,21.959228 L8.29750848,21.959228 Z" id="Fill-8" fill="#337894"></path>
                    <path d="M0.888220553,56.0964647 L0.888220553,57.8037844 C0.888220553,60.3124323 3.04690067,62.5528807 5.93277253,62.5528807 L63.3384004,62.5528807 C66.223182,62.5528807 68.6849495,60.3124323 68.6849495,57.8037844 L68.6849495,56.0964647 L0.888220553,56.0964647 Z" id="Fill-10" fill="#FFFFFF"></path>
                    <path d="M63.3381823,63.3909501 L5.93255448,63.3909501 C2.68908309,63.3909501 0.0506962756,60.8844826 0.0506962756,57.8045476 L0.0506962756,56.0961376 C0.0506962756,55.6338748 0.425739691,55.2588314 0.888002504,55.2588314 L68.6858217,55.2588314 C69.1480845,55.2588314 69.5231279,55.6338748 69.5231279,56.0961376 L69.5231279,57.8045476 C69.5231279,60.7798193 66.6328951,63.3909501 63.3381823,63.3909501 L63.3381823,63.3909501 Z M1.72639898,56.9345341 L1.72639898,57.8045476 C1.72639898,59.9610472 3.61251848,61.7152474 5.93255448,61.7152474 L63.3381823,61.7152474 C65.7399865,61.7152474 67.8474252,59.8880009 67.8474252,57.8045476 L67.8474252,56.9345341 L1.72639898,56.9345341 Z" id="Fill-12" fill="#337894"></path>
                </g>
                <polygon id="Fill-15" fill="#8CD6EB" points="14.6517688 56.0962466 63.0792497 56.0962466 63.0792497 27.0391039 14.6517688 27.0391039"></polygon>
                <path d="M63.0791407,56.934207 L14.6516597,56.934207 C14.1893969,56.934207 13.8143535,56.5591636 13.8143535,56.0969008 L13.8143535,27.039758 C13.8143535,26.5774952 14.1893969,26.2013616 14.6516597,26.2013616 L63.0791407,26.2013616 C63.5414035,26.2013616 63.9164469,26.5774952 63.9164469,27.039758 L63.9164469,56.0969008 C63.9164469,56.5591636 63.5414035,56.934207 63.0791407,56.934207 L63.0791407,56.934207 Z M15.4900562,55.2585043 L62.2418345,55.2585043 L62.2418345,27.8770643 L15.4900562,27.8770643 L15.4900562,55.2585043 Z" id="Fill-16" fill="#337894"></path>
                <polygon id="Fill-18" fill="#6BCCE5" points="59.0420818 55.2218721 62.27138 55.2218721 62.27138 27.8469736 59.0420818 27.8469736"></polygon>
                <g id="Group-31" transform="translate(0, 15.0777)">
                    <path d="M74.1528427,48.4212666 L0.931067083,48.4212666 C0.416472629,48.4212666 0,48.004794 0,47.4901995 C0,46.9766953 0.416472629,46.5602227 0.931067083,46.5602227 L74.1528427,46.5602227 C74.6674371,46.5602227 75.0839097,46.9766953 75.0839097,47.4901995 C75.0839097,48.004794 74.6674371,48.4212666 74.1528427,48.4212666" id="Fill-19" fill="#337894"></path>
                    <path d="M42.362462,44.6981975 L32.1392582,44.6981975 C30.2825753,44.6981975 28.8870649,43.4269748 28.5839775,41.4590871 L30.4232166,41.1745338 C30.5867529,42.2309788 31.2114619,42.8360634 32.1392582,42.8360634 L42.362462,42.8360634 C43.2510096,42.8360634 43.9095161,42.1535716 44.0795939,41.0546071 L45.918833,41.3391604 C45.6081139,43.3484773 44.178806,44.6981975 42.362462,44.6981975" id="Fill-21" fill="#337894"></path>
                    <path d="M58.0192163,1.26141056 L42.9008238,1.26141056 C42.9008238,1.26141056 39.6726158,0.858020836 38.8658363,3.68283912 C37.385287,1.12731073 34.5604687,1.26141056 34.5604687,1.26141056 L18.9263915,1.26141056 L18.9263915,33.5282272 L36.8554292,33.5282272 C37.313331,34.7700133 38.5071465,35.0098667 39.1787359,35.0098667 C39.9408154,35.0098667 40.9558312,34.7700133 41.4126428,33.5282272 L58.0192163,33.5282272 L58.0192163,1.26141056 Z" id="Fill-23" fill="#FFFFFF"></path>
                    <path d="M39.179281,35.6302147 C38.6766792,35.6302147 37.1252642,35.5124685 36.2770555,34.1496654 L19.2365655,34.1496654 C18.721971,34.1496654 18.3054984,33.7321025 18.3054984,33.2185983 L18.3054984,0.950691447 C18.3054984,0.437187237 18.721971,0.0207146072 19.2365655,0.0207146072 L34.6340601,0.0196243647 C35.0941424,0.0196243647 37.1132715,0.112294976 38.7028451,1.65716858 C39.5303391,0.599633367 40.8582545,0 42.4848962,0 C42.7018545,0 42.8643006,0.0119926673 42.9493395,0.0207146072 L58.3293903,0.0207146072 C58.8439847,0.0207146072 59.2604574,0.437187237 59.2604574,0.950691447 L59.2604574,33.2185983 C59.2604574,33.7321025 58.8439847,34.1496654 58.3293903,34.1496654 L41.9964676,34.1496654 C41.4197293,35.110169 40.4406916,35.6302147 39.179281,35.6302147 L39.179281,35.6302147 Z M20.1676326,32.2875312 L36.8548841,32.2875312 C37.2451909,32.2875312 37.5940685,32.5306553 37.7281683,32.8958865 C38.0083606,33.6557855 38.7573572,33.7691707 39.179281,33.7691707 C40.1005359,33.7691707 40.3894502,33.302547 40.5399037,32.8958865 C40.6740035,32.5306553 41.0228811,32.2875312 41.4131879,32.2875312 L57.3983232,32.2875312 L57.3983232,1.88175853 L42.9002786,1.88175853 C42.8621201,1.88175853 42.8239617,1.87957805 42.7858032,1.87412683 C42.7683593,1.87303659 42.6560643,1.86213417 42.4848962,1.86213417 C41.4731512,1.86213417 40.1779431,2.1684923 39.7614705,3.62832699 C39.6578975,3.98701677 39.3515393,4.25085545 38.9808569,4.29664564 C38.6101745,4.34025533 38.2482139,4.16254581 38.0606922,3.83874379 C36.9813522,1.97551938 35.0167352,1.88066829 34.6340601,1.88066829 C34.6187967,1.88175853 34.575187,1.88175853 34.5599236,1.88175853 L20.1676326,1.88175853 L20.1676326,32.2875312 Z" id="Fill-25" fill="#337894"></path>
                    <path d="M39.2176576,39.1367616 C38.1056102,39.1367616 36.0515934,38.4041186 34.512171,37.2517323 L20.1667604,37.2517323 C19.6532562,37.2517323 19.2367835,36.8352597 19.2367835,36.3206652 C19.2367835,35.807161 19.6532562,35.3906884 20.1667604,35.3906884 L34.831612,35.3906884 C35.0463898,35.3906884 35.2535359,35.4648249 35.420343,35.600015 C36.8245753,36.7447696 38.7390411,37.299703 39.2351014,37.2746274 C39.9110518,37.2506421 40.9184358,36.6204819 41.728486,36.1146094 C42.0871758,35.8889292 42.4327827,35.6752417 42.748953,35.5029834 C42.8852333,35.4288469 43.0378672,35.3906884 43.1926817,35.3906884 L56.7781933,35.3906884 C57.2927877,35.3906884 57.7092604,35.807161 57.7092604,36.3206652 C57.7092604,36.8352597 57.2927877,37.2517323 56.7781933,37.2517323 L43.4358057,37.2517323 C43.2079451,37.3847419 42.9659112,37.5362856 42.7151555,37.6921903 C41.6652519,38.3496065 40.4757974,39.0931519 39.3026965,39.1356713 C39.2754404,39.1356713 39.2470941,39.1367616 39.2176576,39.1367616" id="Fill-27" fill="#337894"></path>
                    <path d="M39.0931519,28.8748542 C38.5785574,28.8748542 38.1620848,28.4583816 38.1620848,27.9437871 L38.1620848,3.12332667 C38.1620848,2.60873222 38.5785574,2.19225959 39.0931519,2.19225959 C39.6077463,2.19225959 40.024219,2.60873222 40.024219,3.12332667 L40.024219,27.9437871 C40.024219,28.4583816 39.6077463,28.8748542 39.0931519,28.8748542" id="Fill-29" fill="#337894"></path>
                </g>
                <polygon id="Fill-32" fill="#B2E5F2" points="23.8904836 25.6468642 34.4396699 25.6468642 34.4396699 20.6829902 23.8904836 20.6829902"></polygon>
                <polygon id="Fill-33" fill="#B2E5F2" points="23.8904836 43.0220587 34.4396699 43.0220587 34.4396699 38.0581847 23.8904836 38.0581847"></polygon>
                <polygon id="Fill-34" fill="#B2E5F2" points="43.126722 36.8163985 54.2962563 36.8163985 54.2962563 26.2672122 43.126722 26.2672122"></polygon>
                <g id="Group-49" transform="translate(23.5801, 19.4423)" fill="#FFBF0F">
                    <path d="M9.61811921,13.2477545 L0.931067083,13.2477545 C0.467714026,13.2477545 0.0926706113,12.8727111 0.0926706113,12.4104483 C0.0926706113,11.9470952 0.467714026,11.5720518 0.931067083,11.5720518 L9.61811921,11.5720518 C10.080382,11.5720518 10.4554254,11.9470952 10.4554254,12.4104483 C10.4554254,12.8727111 10.080382,13.2477545 9.61811921,13.2477545" id="Fill-35"></path>
                    <path d="M9.61811921,9.92796612 L0.931067083,9.92796612 C0.416472629,9.92796612 0,9.51149349 0,8.99689904 C0,8.48339483 0.416472629,8.06583196 0.931067083,8.06583196 L9.61811921,8.06583196 C10.1327137,8.06583196 10.5491863,8.48339483 10.5491863,8.99689904 C10.5491863,9.51149349 10.1327137,9.92796612 9.61811921,9.92796612" id="Fill-37"></path>
                    <path d="M30.0953806,4.96376501 L19.5461944,4.96376501 C19.0326901,4.96376501 18.6162175,4.54729238 18.6162175,4.03269793 C18.6162175,3.51919372 19.0326901,3.10163085 19.5461944,3.10163085 L30.0953806,3.10163085 C30.6099751,3.10163085 31.0264477,3.51919372 31.0264477,4.03269793 C31.0264477,4.54729238 30.6099751,4.96376501 30.0953806,4.96376501" id="Fill-39"></path>
                    <path d="M30.0953806,1.86104392 L19.5461944,1.86104392 C19.0326901,1.86104392 18.6162175,1.44457129 18.6162175,0.92997684 C18.6162175,0.416472629 19.0326901,0 19.5461944,0 L30.0953806,0 C30.6099751,0 31.0264477,0.416472629 31.0264477,0.92997684 C31.0264477,1.44457129 30.6099751,1.86104392 30.0953806,1.86104392" id="Fill-41"></path>
                    <path d="M30.0953806,24.2000034 L20.1665423,24.2000034 C19.6530381,24.2000034 19.2365655,23.7835308 19.2365655,23.2689363 C19.2365655,22.7554321 19.6530381,22.3378693 20.1665423,22.3378693 L30.0953806,22.3378693 C30.6099751,22.3378693 31.0264477,22.7554321 31.0264477,23.2689363 C31.0264477,23.7835308 30.6099751,24.2000034 30.0953806,24.2000034" id="Fill-43"></path>
                    <path d="M30.0953806,21.0973914 L20.1665423,21.0973914 C19.6530381,21.0973914 19.2365655,20.6809187 19.2365655,20.1663243 C19.2365655,19.6528201 19.6530381,19.2352572 20.1665423,19.2352572 L30.0953806,19.2352572 C30.6099751,19.2352572 31.0264477,19.6528201 31.0264477,20.1663243 C31.0264477,20.6809187 30.6099751,21.0973914 30.0953806,21.0973914" id="Fill-45"></path>
                    <path d="M9.61811921,16.7536473 L0.931067083,16.7536473 C0.416472629,16.7536473 0,16.3371746 0,15.8225802 C0,15.309076 0.416472629,14.8926033 0.931067083,14.8926033 L9.61811921,14.8926033 C10.1327137,14.8926033 10.5491863,15.309076 10.5491863,15.8225802 C10.5491863,16.3371746 10.1327137,16.7536473 9.61811921,16.7536473" id="Fill-47"></path>
                </g>
            </g>
        </g>
    </g>
</svg>