<?xml version="1.0" encoding="UTF-8"?>
<svg width="70px" height="70px" viewBox="0 0 70 70" version="1.1" xmlns="http://www.w3.org/2000/svg" xmlns:xlink="http://www.w3.org/1999/xlink">
    <title>Group 36</title>
    <defs>
        <polygon id="path-1" points="0 0 54.3100377 0 54.3100377 54.3104568 0 54.3104568"></polygon>
        <polygon id="path-3" points="0 0 69.7511742 0 69.7511742 59.8397337 0 59.8397337"></polygon>
    </defs>
    <g id="Page-1" stroke="none" stroke-width="1" fill="none" fill-rule="evenodd">
        <g id="Option-5_V2" transform="translate(-193, -835)">
            <g id="Group-36" transform="translate(193, 835)">
                <g id="Group-6">
                    <g id="Group-3">
                        <mask id="mask-2" fill="white">
                            <use xlink:href="#path-1"></use>
                        </mask>
                        <g id="Clip-2"></g>
                        <path d="M54.3100377,27.1554379 C54.3100377,42.1530881 42.1516214,54.3104568 27.1539712,54.3104568 C12.156321,54.3104568 -0.00104768775,42.1520404 -0.00104768775,27.1543903 C3.25260652e-18,12.1577878 12.1584164,-0.000628612652 27.1560666,-0.000628612652 C42.1526691,0.000419075101 54.3100377,12.1577878 54.3100377,27.1554379" id="Fill-1" fill="#FFF0B2" mask="url(#mask-2)"></path>
                    </g>
                    <path d="M7.62706207,52.6885314 L14.4904645,18.2918948 L19.7990984,19.3521548 L21.6315043,19.4527328 L21.6315043,11.8025168 L43.0776726,11.8025168 L43.1520584,20.27412 L50.434536,20.27412 L50.434536,25.5439894 L61.9004307,25.5439894 L61.9004307,54.2548246 C61.9004307,54.2548246 58.5394484,46.6161332 49.840497,47.2227444 C41.5082363,47.8052588 39.4264808,54.2548246 39.4264808,54.2548246 L20.5471474,54.2548246 L20.2684625,25.2663522 L12.9356959,53.7487914 L7.62706207,52.6885314 Z" id="Fill-4" fill="#FFFFFF"></path>
                </g>
                <polygon id="Fill-7" fill="#6BCCE5" points="51.4823285 40.9143021 61.080196 40.9143021 61.080196 29.2158207 51.4823285 29.2158207"></polygon>
                <polygon id="Fill-8" fill="#6BCCE5" points="20.5482999 27.5730463 31.1215647 27.5730463 31.1215647 20.6373534 20.5482999 20.6373534"></polygon>
                <g id="Group-34" transform="translate(0, 10.1603)">
                    <g id="Group-11">
                        <mask id="mask-4" fill="white">
                            <use xlink:href="#path-3"></use>
                        </mask>
                        <g id="Clip-10"></g>
                        <path d="M68.9308346,44.0940345 L64.560929,44.0940345 C63.4765722,44.0940345 63.4755245,45.7357612 64.560929,45.7357612 L68.1104951,45.7357612 L68.1104951,48.5152768 L62.7505246,48.5152768 C62.7505246,48.5152768 62.7211893,34.116904 62.7211893,14.7975418 C62.7211893,14.343893 62.3534509,13.9761546 61.8998021,13.9761546 L51.4815951,13.9761546 L51.4815951,10.1133299 C51.4815951,9.66072877 51.1149044,9.29299037 50.6612556,9.29299037 L43.1461914,9.29299037 C42.6935902,9.29299037 42.3258518,9.66072877 42.3258518,10.1133299 L42.3258518,39.3941072 C41.0214806,40.6995261 40.0198911,42.3045838 39.4258521,44.0940345 L32.7615103,44.0940345 L32.7615103,1.64172671 L42.251466,1.64172671 L42.251466,7.80317839 C42.251466,8.8885829 43.8931927,8.88963059 43.8931927,7.80317839 L43.8931927,0.821387198 C43.8931927,0.367738401 43.5254543,0 43.0718055,0 L20.8105361,0 C20.3568873,0 19.9901966,0.367738401 19.9901966,0.821387198 L19.9901966,7.55592408 L14.0068519,6.36156004 C13.5594892,6.27250658 13.1299372,6.56062071 13.0408838,7.00588801 C5.36238023,45.4885069 5.698688,43.2076906 5.97842063,43.6288611 C6.22357956,43.9945041 6.58188877,43.9934564 7.08268352,44.0940345 L0.819606129,44.0940345 C0.36700502,44.0940345 -0.000733381427,44.4617729 -0.000733381427,44.9154217 L-0.000733381427,49.336664 C-0.000733381427,49.7903128 0.36700502,50.1570035 0.819606129,50.1570035 L9.00728592,50.1570035 L9.00728592,51.8951175 C9.00728592,53.3755003 10.2728927,54.5792935 11.8276614,54.5792935 C13.3834777,54.5792935 14.6480368,53.3755003 14.6480368,51.8951175 L14.6480368,50.1570035 L36.7584391,50.1570035 C37.8427959,50.1570035 37.8438436,48.5152768 36.7584391,48.5152768 L1.64099333,48.5152768 L1.64099333,45.7357612 L39.0088724,45.7357612 C37.6772613,53.1471043 43.4081133,59.8397337 50.7932643,59.8397337 C56.6110744,59.8397337 61.4702502,55.6678411 62.5451778,50.1570035 L68.9308346,50.1570035 C69.3844834,50.1570035 69.7511742,49.7903128 69.7511742,49.336664 L69.7511742,44.9154217 C69.7511742,44.4617729 69.3844834,44.0940345 68.9308346,44.0940345 L68.9308346,44.0940345 Z M13.0073578,51.8951175 C13.0073578,53.2717792 10.6490126,53.2728269 10.6490126,51.8951175 L10.6490126,50.1570035 L13.0073578,50.1570035 L13.0073578,51.8951175 Z M21.6308757,17.4125705 L31.1208313,17.4125705 L31.1208313,10.9347171 L21.6308757,10.9347171 L21.6308757,17.4125705 Z M21.6308757,9.29299037 L31.1208313,9.29299037 L31.1208313,1.64172671 L21.6308757,1.64172671 L21.6308757,9.29299037 Z M14.4898359,8.13215234 L19.7984698,9.19241235 L18.0687373,17.8630762 L12.7569604,16.8174838 L14.4898359,8.13215234 Z M16.6878848,24.7830538 C16.5233979,24.7065726 11.5594533,23.7468906 11.3813464,23.7123169 L12.4363679,18.4267322 L17.7481448,19.4723246 L16.6878848,24.7830538 Z M11.0597062,25.322613 C11.2346701,25.356139 16.1986147,26.3503947 16.3767216,26.3420132 L12.936115,43.5880013 L7.62748115,42.5277413 L11.0597062,25.322613 Z M19.9901966,16.6247093 L19.9901966,44.0940345 L14.5086943,44.0940345 L19.9901966,16.6247093 Z M21.6308757,44.0940345 L31.1208313,44.0940345 L31.1208313,19.0553449 L21.6308757,19.0553449 L21.6308757,44.0940345 Z M51.4815951,35.9000685 L51.4815951,32.395553 L61.0794626,32.395553 L61.0794626,41.733594 C59.0982851,38.4155668 55.5602435,36.1326552 51.4815951,35.9000685 L51.4815951,35.9000685 Z M51.4815951,30.7538263 L61.0794626,30.7538263 L61.0794626,19.0553449 L51.4815951,19.0553449 L51.4815951,30.7538263 Z M51.4815951,17.4136181 L61.0794626,17.4136181 L61.0794626,15.618929 L51.4815951,15.618929 L51.4815951,17.4136181 Z M49.8409161,10.9347171 L49.8409161,35.9199746 C47.6690594,36.0917954 45.6595943,36.8440352 43.9665309,38.0226839 L43.9665309,10.9347171 L49.8409161,10.9347171 Z M50.7932643,58.198007 C45.0938429,58.198007 40.4578246,53.5598933 40.4578246,47.8594243 C40.4578246,42.263724 44.9911695,37.5208415 50.7932643,37.5208415 C56.491638,37.5208415 61.1276563,42.1589552 61.1276563,47.8594243 C61.1276563,53.5598933 56.491638,58.198007 50.7932643,58.198007 L50.7932643,58.198007 Z" id="Fill-9" fill="#3687A3" mask="url(#mask-4)"></path>
                    </g>
                    <path d="M55.9152002,42.4909674 C55.9141525,42.4909674 55.9141525,42.4899197 55.9131048,42.4899197 C54.3028087,41.6025282 52.3258219,41.6811048 50.7930547,42.6994573 C47.5232213,40.5286483 43.1155989,42.8712781 43.1155989,46.824204 C43.1155989,50.2836689 47.1334814,53.4550198 50.0544349,55.2958072 C50.4986545,55.5703013 51.0685966,55.584969 51.5390084,55.2926641 C54.466248,53.4497813 58.4705106,50.2784305 58.4705106,46.824204 C58.4705106,45.0242764 57.4909225,43.3636913 55.9152002,42.4909674 M50.7951501,53.8206628 C48.8254971,52.5581991 45.655194,50.1621372 44.9123834,47.8226504 C43.900317,44.6450135 47.7442834,42.1284675 50.2493048,44.3464224 C51.1660316,45.1594281 51.4855763,43.5177014 53.5264721,43.5177014 C56.1666452,43.5177014 60.5417893,47.5774915 50.7951501,53.8206628" id="Fill-12" fill="#FFBF0F"></path>
                    <path d="M37.5066977,6.22619878 C35.8796386,6.22619878 34.5553613,7.5504761 34.5553613,9.17858287 C34.5553613,10.8066896 35.8796386,12.130967 37.5066977,12.130967 C39.1337568,12.130967 40.4580341,10.8066896 40.4580341,9.17858287 C40.4580341,7.5504761 39.1337568,6.22619878 37.5066977,6.22619878 M36.197088,9.17858287 C36.197088,7.44675501 38.8163074,7.44570732 38.8163074,9.17858287 C38.8163074,10.9104107 36.197088,10.9114584 36.197088,9.17858287" id="Fill-14" fill="#3687A3"></path>
                    <path d="M37.5066977,35.4096459 C35.8796386,35.4096459 34.5553613,36.7339232 34.5553613,38.36203 C34.5553613,39.9901368 35.8796386,41.3144141 37.5066977,41.3144141 C39.1337568,41.3144141 40.4580341,39.9901368 40.4580341,38.36203 C40.4580341,36.7339232 39.1337568,35.4096459 37.5066977,35.4096459 M36.197088,38.36203 C36.197088,36.6302021 38.8163074,36.6291545 38.8163074,38.36203 C38.8163074,40.0928102 36.197088,40.0949055 36.197088,38.36203" id="Fill-16" fill="#3687A3"></path>
                    <path d="M56.2809479,20.5475665 C54.130045,20.5475665 52.3804064,22.6377036 52.3804064,25.206634 C52.3804064,27.7755643 54.130045,29.8657014 56.2809479,29.8657014 C58.4318509,29.8657014 60.1814895,27.7755643 60.1814895,25.206634 C60.1814895,22.6377036 58.4318509,20.5475665 56.2809479,20.5475665 M56.2809479,28.2239747 C55.0352472,28.2239747 54.0221332,26.8703621 54.0221332,25.206634 C54.0221332,23.5429058 55.0352472,22.1892932 56.2809479,22.1892932 C57.5266487,22.1892932 58.5397627,23.5429058 58.5397627,25.206634 C58.5397627,26.8703621 57.5266487,28.2239747 56.2809479,28.2239747" id="Fill-18" fill="#3687A3"></path>
                    <path d="M28.6993106,23.6887439 L23.9071868,23.6887439 C22.82283,23.6887439 22.8217823,22.0470172 23.9071868,22.0470172 L28.6993106,22.0470172 C29.7836674,22.0470172 29.7847151,23.6887439 28.6993106,23.6887439" id="Fill-20" fill="#FFBF0F"></path>
                    <path d="M28.6993106,26.6812545 L23.9071868,26.6812545 C22.82283,26.6812545 22.8217823,25.0395278 23.9071868,25.0395278 L28.6993106,25.0395278 C29.7836674,25.0395278 29.7847151,26.6812545 28.6993106,26.6812545" id="Fill-22" fill="#FFBF0F"></path>
                    <path d="M19.7359228,54.5769886 L17.2979534,54.5769886 C16.2167397,54.5769886 16.2146443,52.9394526 17.2979534,52.9394526 L19.7359228,52.9394526 C20.8171366,52.9394526 20.819232,54.5769886 19.7359228,54.5769886" id="Fill-24" fill="#FFBF0F"></path>
                    <path d="M26.075691,54.5769886 L23.6377215,54.5769886 C22.5565078,54.5769886 22.5544124,52.9394526 23.6377215,52.9394526 L26.075691,52.9394526 C27.1569047,52.9394526 27.1590001,54.5769886 26.075691,54.5769886" id="Fill-26" fill="#FFBF0F"></path>
                    <path d="M38.7549129,54.5769886 L36.3169435,54.5769886 C35.2357297,54.5769886 35.2336344,52.9394526 36.3169435,52.9394526 L38.7549129,52.9394526 C39.8361267,52.9394526 39.838222,54.5769886 38.7549129,54.5769886" id="Fill-28" fill="#FFBF0F"></path>
                    <path d="M32.4153543,54.5769886 L29.9773849,54.5769886 C28.8961712,54.5769886 28.8940758,52.9394526 29.9773849,52.9394526 L32.4153543,52.9394526 C33.4965681,52.9394526 33.4986634,54.5769886 32.4153543,54.5769886" id="Fill-30" fill="#FFBF0F"></path>
                    <path d="M36.6860439,31.5745849 L36.6860439,14.7979609 C36.6860439,13.7125564 38.3277706,13.7115087 38.3277706,14.7979609 L38.3277706,31.5745849 C38.3277706,32.6589417 36.6860439,32.6610371 36.6860439,31.5745849" id="Fill-32" fill="#FFBF0F"></path>
                </g>
                <polygon id="Fill-35" fill="#6BCCE5" points="12.4361584 28.5873128 17.7479353 29.6329052 16.6876753 34.9436344 11.3811368 33.8728975"></polygon>
            </g>
        </g>
    </g>
</svg>