<?xml version="1.0" encoding="UTF-8"?>
<svg width="83px" height="70px" viewBox="0 0 83 70" version="1.1" xmlns="http://www.w3.org/2000/svg" xmlns:xlink="http://www.w3.org/1999/xlink">
    <title>Group 18</title>
    <g id="Page-1" stroke="none" stroke-width="1" fill="none" fill-rule="evenodd">
        <g id="Option-5_V2" transform="translate(-461, -835)">
            <g id="Group-18" transform="translate(461, 835)">
                <g id="Group-9" transform="translate(1.8144, 2.0416)">
                    <path d="M80.7399613,29.6810918 C80.7399613,44.5973698 68.6469113,56.6904198 53.7292953,56.6890817 C38.8130173,56.6890817 26.7213054,44.5973698 26.7213054,29.6810918 C26.7226434,14.7634758 38.8156933,2.6717639 53.7319713,2.6717639 C68.6482493,2.6717639 80.7399613,14.7648138 80.7399613,29.6810918" id="Fill-1" fill="#FFF0B2"></path>
                    <path d="M57.739751,66.6201544 L2.62793052,66.6201544 C2.62793052,66.6201544 0.107095591,65.8748758 0.107095591,62.1779188 L0.107095591,2.52083493 C0.107095591,2.52083493 -0.793393743,0 2.62793052,0 L46.933879,0 C46.933879,0 44.4010019,3.56315468 48.2719018,6.84398654 L48.2719018,14.150929 L57.739751,14.150929 C57.739751,14.150929 60.50143,13.7040294 60.50143,16.912608 L60.50143,63.8584754 C60.50143,63.8584754 60.0250939,66.6201544 57.739751,66.6201544" id="Fill-3" fill="#FFFFFF"></path>
                    <path d="M60.5011624,63.2753651 L60.5011624,18.2495604 C60.5011624,16.6894258 59.300956,15.4878813 57.7394834,15.4878813 L27.6031962,15.4878813 C26.0417236,15.4878813 24.8415172,16.6894258 24.8415172,18.2495604 L24.8415172,63.2753651 C24.8415172,64.8368377 26.0417236,66.0370441 27.6031962,66.0370441 L57.8599054,66.0370441 C59.42004,66.0370441 60.6215845,64.8368377 60.6215845,63.2753651 L60.5011624,63.2753651 Z M57.2591332,57.9928511 C57.2591332,58.5922853 56.778783,59.1930576 56.0589268,59.1930576 L29.4041749,59.1930576 C28.8034026,59.1930576 28.2026304,58.7127074 28.2026304,57.9928511 L28.2026304,20.4118052 C28.2026304,19.811033 28.6829806,19.2102607 29.4041749,19.2102607 L56.0589268,19.2102607 C56.658361,19.2102607 57.2591332,19.6906109 57.2591332,20.4118052 L57.2591332,57.9928511 Z" id="Fill-5" fill="#6BCCE5"></path>
                    <path d="M42.7311494,63.3956533 C42.2507992,63.3956533 41.8908711,63.0357252 41.8908711,62.555375 C41.8908711,62.0750248 42.2507992,61.7150967 42.7311494,61.7150967 C43.2114996,61.7150967 43.5714277,62.0750248 43.5714277,62.555375 C43.4510057,63.0357252 43.0910775,63.3956533 42.7311494,63.3956533 L42.7311494,63.3956533 Z M42.7311494,59.9141181 C41.530943,59.9141181 40.5702426,60.6339743 40.2103145,61.5946747 L38.6488419,61.5946747 L38.6488419,63.5160754 L40.2103145,63.5160754 C40.5702426,64.4767757 41.530943,65.196632 42.7311494,65.196632 C43.9313559,65.196632 44.8920562,64.4767757 45.2519843,63.5160754 L46.8134569,63.5160754 L46.8134569,61.5946747 L45.2519843,61.5946747 C44.7729722,60.6339743 43.8122718,59.9141181 42.7311494,59.9141181 L42.7311494,59.9141181 Z M30.0038767,57.2728611 L55.3380001,57.2728611 L55.3380001,21.1328657 L30.0038767,21.1328657 L30.0038767,57.2728611 Z M56.0591944,19.2101269 L29.4031045,19.2101269 C28.6832482,19.2101269 28.202898,19.8108992 28.202898,20.4116714 L28.202898,57.9927173 C28.202898,58.7125736 28.8036703,59.1929238 29.4031045,59.1929238 L56.0591944,59.1929238 C56.7790506,59.1929238 57.2594008,58.5934896 57.2594008,57.9927173 L57.2594008,20.4116714 C57.2594008,19.6904771 56.6586286,19.2101269 56.0591944,19.2101269 L56.0591944,19.2101269 Z M60.6218521,63.2752313 C60.6218521,64.8367039 59.4203076,66.0369103 57.860173,66.0369103 L27.6021258,66.0369103 C26.0419912,66.0369103 24.8417848,64.8367039 24.8417848,63.2752313 L24.8417848,18.2507646 C24.8417848,16.689292 26.0419912,15.4890856 27.6021258,15.4890856 L57.739751,15.4890856 C59.3012236,15.4890856 60.50143,16.689292 60.50143,18.2507646 L60.50143,63.2752313 L60.6218521,63.2752313 Z M57.739751,13.5676848 L27.6021258,13.5676848 C25.0812909,13.5676848 22.9203841,15.6081696 22.9203841,18.2507646 L22.9203841,63.2752313 C22.9203841,65.7974042 24.9608688,67.958311 27.6021258,67.958311 L57.739751,67.958311 C60.2605859,67.958311 62.4228307,65.9164883 62.4228307,63.2752313 L62.4228307,18.2507646 C62.4228307,15.7285916 60.381008,13.5676848 57.739751,13.5676848 L57.739751,13.5676848 Z" id="Fill-7" fill="#337894"></path>
                </g>
                <polygon id="Fill-10" fill="#FFBF0F" points="36.2604175 30.4975533 52.9495757 30.4975533 52.9495757 28.5761526 36.2604175 28.5761526"></polygon>
                <polygon id="Fill-11" fill="#FFBF0F" points="36.2604175 35.4201392 52.9495757 35.4201392 52.9495757 33.4987384 36.2604175 33.4987384"></polygon>
                <polygon id="Fill-12" fill="#FFBF0F" points="36.2604175 40.223641 52.9495757 40.223641 52.9495757 38.3022402 36.2604175 38.3022402"></polygon>
                <polygon id="Fill-13" fill="#FFBF0F" points="36.2604175 45.1462268 52.9495757 45.1462268 52.9495757 43.2248261 36.2604175 43.2248261"></polygon>
                <polygon id="Fill-14" fill="#FFBF0F" points="36.2604175 49.9483905 52.9495757 49.9483905 52.9495757 48.0269898 36.2604175 48.0269898"></polygon>
                <polygon id="Fill-15" fill="#FFBF0F" points="36.2604175 54.7518923 44.9053827 54.7518923 44.9053827 52.8304916 36.2604175 52.8304916"></polygon>
                <path d="M7.44475877,68.0785993 L4.44357367,68.0785993 C3.00252313,68.0785993 1.92140072,66.9974769 1.92140072,65.5577644 L1.92140072,8.04419298 C2.642595,8.52454316 3.48287331,8.88580931 4.44357367,8.88580931 L7.44475877,8.88580931 L7.44475877,68.0785993 Z M4.44357367,2.04182277 L46.7063613,2.04182277 C46.4668553,2.52217295 46.3464332,3.12160716 46.2260112,3.72237939 L4.68307975,3.72237939 L4.68307975,5.64378011 L46.3464332,5.64378011 C46.4668553,6.24321431 46.5872773,6.72356449 46.8267834,7.08349262 L4.44357367,7.08349262 C3.00252313,7.08349262 1.92140072,6.00370823 1.92140072,4.5626577 C2.04182277,3.12160716 3.12294518,2.04182277 4.44357367,2.04182277 L4.44357367,2.04182277 Z M9.36615949,68.0785993 L9.36615949,8.88580931 L48.7481841,8.88580931 L48.7481841,13.8083951 L50.6695848,13.8083951 L50.6695848,6.96440859 L49.7088845,6.96440859 C48.6277621,6.96440859 48.2678339,5.52335805 48.2678339,4.44223564 C48.2678339,3.72237939 48.388256,3.00252313 48.7481841,2.52217295 C49.1081122,1.92140072 49.5884624,1.92140072 49.7088845,1.92140072 L49.8293065,1.92140072 L49.8293065,0 L4.44357367,0 C2.04182277,0 0,1.92140072 0,4.44223564 L0,65.5577644 C0,67.9581772 1.92140072,70 4.44357367,70 L24.0134949,70 L22.8132885,68.0785993 L9.36615949,68.0785993 Z" id="Fill-16" fill="#337894"></path>
            </g>
        </g>
    </g>
</svg>